<svg width="1200" height="520" viewBox="0 0 1200 520" fill="none" xmlns="http://www.w3.org/2000/svg">
  <defs>
    <linearGradient id="bg" x1="0" y1="0" x2="1200" y2="520" gradientUnits="userSpaceOnUse">
      <stop offset="0" stop-color="#07111F"/>
      <stop offset="0.45" stop-color="#0B2130"/>
      <stop offset="1" stop-color="#111827"/>
    </linearGradient>
    <linearGradient id="accent" x1="110" y1="120" x2="1070" y2="430" gradientUnits="userSpaceOnUse">
      <stop offset="0" stop-color="#38BDF8"/>
      <stop offset="0.5" stop-color="#34D399"/>
      <stop offset="1" stop-color="#FACC15"/>
    </linearGradient>
    <filter id="softShadow" x="-20%" y="-20%" width="140%" height="140%" color-interpolation-filters="sRGB">
      <feDropShadow dx="0" dy="22" stdDeviation="24" flood-color="#020617" flood-opacity="0.45"/>
    </filter>
  </defs>

  <rect width="1200" height="520" rx="34" fill="url(#bg)"/>
  <path d="M86 404C191 268 282 229 409 264C552 303 603 190 746 159C891 128 994 210 1114 95" stroke="url(#accent)" stroke-width="2.5" stroke-opacity="0.34"/>
  <path d="M76 446C202 309 299 303 427 330C569 360 641 259 755 235C885 207 988 263 1127 147" stroke="url(#accent)" stroke-width="1.5" stroke-opacity="0.18"/>

  <g filter="url(#softShadow)">
    <rect x="670" y="94" width="410" height="300" rx="22" fill="#0F172A" stroke="#263244"/>
    <rect x="694" y="122" width="148" height="20" rx="10" fill="#334155"/>
    <rect x="866" y="122" width="72" height="20" rx="10" fill="#22C55E"/>
    <rect x="952" y="122" width="92" height="20" rx="10" fill="#38BDF8"/>
    <rect x="698" y="170" width="328" height="58" rx="16" fill="#111C2E" stroke="#2A3A50"/>
    <circle cx="728" cy="199" r="12" fill="#38BDF8"/>
    <rect x="752" y="188" width="190" height="10" rx="5" fill="#CBD5E1"/>
    <rect x="752" y="207" width="112" height="8" rx="4" fill="#64748B"/>
    <rect x="698" y="248" width="144" height="94" rx="18" fill="#102A2A" stroke="#1E4D45"/>
    <rect x="866" y="248" width="160" height="94" rx="18" fill="#2A2414" stroke="#5A4818"/>
    <path d="M730 303L762 271L793 303L821 275" stroke="#34D399" stroke-width="6" stroke-linecap="round" stroke-linejoin="round"/>
    <path d="M904 304H988M904 280H954M904 326H968" stroke="#FACC15" stroke-width="8" stroke-linecap="round"/>
    <rect x="698" y="363" width="328" height="12" rx="6" fill="#334155"/>
  </g>

  <g filter="url(#softShadow)">
    <rect x="128" y="122" width="430" height="250" rx="28" fill="#F8FAFC"/>
    <rect x="158" y="154" width="168" height="16" rx="8" fill="#CBD5E1"/>
    <rect x="158" y="196" width="340" height="18" rx="9" fill="#0F172A"/>
    <rect x="158" y="228" width="292" height="12" rx="6" fill="#64748B"/>
    <rect x="158" y="254" width="226" height="12" rx="6" fill="#94A3B8"/>
    <rect x="158" y="300" width="128" height="44" rx="22" fill="#0F172A"/>
    <rect x="306" y="300" width="142" height="44" rx="22" fill="#E2E8F0"/>
    <circle cx="497" cy="157" r="26" fill="#38BDF8"/>
    <path d="M486 157L495 166L510 148" stroke="#FFFFFF" stroke-width="5" stroke-linecap="round" stroke-linejoin="round"/>
  </g>

  <circle cx="598" cy="250" r="44" fill="#020617" stroke="url(#accent)" stroke-width="4"/>
  <path d="M582 250C582 237 592 226 605 226C618 226 628 237 628 250C628 263 618 274 605 274C592 274 582 263 582 250Z" fill="#38BDF8"/>
  <path d="M570 250H550M656 250H636M604 198V218M604 282V302" stroke="#34D399" stroke-width="6" stroke-linecap="round"/>

  <text x="128" y="430" fill="#E5E7EB" font-family="Segoe UI, Arial, sans-serif" font-size="46" font-weight="700">AIPC UP</text>
  <text x="128" y="470" fill="#94A3B8" font-family="Segoe UI, Arial, sans-serif" font-size="22">把普通电脑升级成可以执行任务的 AI 工作台</text>
  <text x="858" y="442" fill="#CBD5E1" font-family="Segoe UI, Arial, sans-serif" font-size="18">Claude · Codex · OpenCode</text>
</svg>
